<svg id="fyrirsogn_pwc" xmlns="http://www.w3.org/2000/svg" width="247.704" height="83.342" viewBox="0 0 247.704 83.342">
  <path id="Path_2296" data-name="Path 2296" d="M20.435-8.657l-.692-.57-2.889-.2V-11.1H27.028V-9.43l-2.238.2-.692.57V1.07q-1.424.407-2.564.671T19.4,2.168q-1,.163-1.913.244t-1.811.081A13.354,13.354,0,0,1,5.581-1.535a13.214,13.214,0,0,1-2.95-4.639,16.022,16.022,0,0,1-1-5.7A15.17,15.17,0,0,1,2.672-17.61a12.286,12.286,0,0,1,2.95-4.375,13.356,13.356,0,0,1,4.6-2.808,17.207,17.207,0,0,1,6.023-1q.936,0,1.831.061t1.831.2q.936.142,1.953.366t2.2.549v6.471H21.778l-.61-3.7-.57-.733a13.626,13.626,0,0,0-2.36-.814,10.317,10.317,0,0,0-2.32-.244,10.515,10.515,0,0,0-4.232.814A8.749,8.749,0,0,0,8.512-20.5a10.334,10.334,0,0,0-1.994,3.683,16.161,16.161,0,0,0-.692,4.9,16.717,16.717,0,0,0,.733,5.128,11.033,11.033,0,0,0,2.1,3.866A8.939,8.939,0,0,0,11.971-.5a11.088,11.088,0,0,0,4.4.834A16.21,16.21,0,0,0,18.2.235a18.906,18.906,0,0,0,2.238-.427Zm18.191-9.279a9.329,9.329,0,0,1,3.764.753,8.62,8.62,0,0,1,2.971,2.116,10.062,10.062,0,0,1,1.953,3.235,11.353,11.353,0,0,1,.712,4.07,11.353,11.353,0,0,1-.712,4.07A9.821,9.821,0,0,1,45.362-.477a8.7,8.7,0,0,1-2.991,2.1,9.577,9.577,0,0,1-3.825.753,9.432,9.432,0,0,1-3.805-.753,8.965,8.965,0,0,1-2.991-2.1A9.42,9.42,0,0,1,29.8-3.671a11.6,11.6,0,0,1-.692-4.09,11.9,11.9,0,0,1,.692-4.151,9.382,9.382,0,0,1,1.953-3.215A8.675,8.675,0,0,1,34.76-17.2,9.916,9.916,0,0,1,38.627-17.935Zm-.163,1.791a4.459,4.459,0,0,0-2.279.59,5.31,5.31,0,0,0-1.75,1.689,8.409,8.409,0,0,0-1.119,2.645A14.094,14.094,0,0,0,32.929-7.8a13.6,13.6,0,0,0,.407,3.459A8.751,8.751,0,0,0,34.476-1.7a5.24,5.24,0,0,0,1.77,1.689,4.57,4.57,0,0,0,2.3.59,4.682,4.682,0,0,0,2.32-.59A5.176,5.176,0,0,0,42.655-1.7a8.774,8.774,0,0,0,1.139-2.625A13.361,13.361,0,0,0,44.2-7.761a10.689,10.689,0,0,0-1.546-6.125A4.83,4.83,0,0,0,38.464-16.145ZM40.7-27.987h4.029l-5.942,7.732H36.755Zm22.383,10.5A44.806,44.806,0,0,0,59.829-22L54.62-18.871l-.9-1.546,4.761-2.889-1.465-1.669-3.3-.285v-1.18l4.6-1.384,2.889,2.971,4.477-2.686.9,1.587-4.192,2.523a47.452,47.452,0,0,1,3.113,4.049,27.4,27.4,0,0,1,2.116,3.663,16.826,16.826,0,0,1,1.221,3.5A16.087,16.087,0,0,1,69.23-8.7a13.343,13.343,0,0,1-.712,4.436,10.73,10.73,0,0,1-1.974,3.5,9.16,9.16,0,0,1-2.991,2.3,8.642,8.642,0,0,1-3.805.834,9.043,9.043,0,0,1-3.724-.753A8.513,8.513,0,0,1,53.114-.5,9.972,9.972,0,0,1,51.2-3.732a11.773,11.773,0,0,1-.692-4.11,10.6,10.6,0,0,1,.733-4.009,9.475,9.475,0,0,1,2.035-3.134A9.1,9.1,0,0,1,56.39-17.04a10.485,10.485,0,0,1,3.968-.733q.61,0,1.058.041t1.384.2ZM64.1-15.534a14.665,14.665,0,0,0-1.73-.407,9.269,9.269,0,0,0-1.485-.122A5.891,5.891,0,0,0,56-13.927a9.528,9.528,0,0,0-1.709,6.084A13.839,13.839,0,0,0,54.7-4.363a8.689,8.689,0,0,0,1.16,2.686A5.418,5.418,0,0,0,57.693.052a4.749,4.749,0,0,0,2.381.61,4.522,4.522,0,0,0,2.36-.631,5.438,5.438,0,0,0,1.791-1.77,9.248,9.248,0,0,0,1.139-2.747,14.693,14.693,0,0,0,.407-3.6,18.889,18.889,0,0,0-.387-4.11A12.736,12.736,0,0,0,64.1-15.534ZM84.654,7.947a13.316,13.316,0,0,0,1.709-2.482A28.427,28.427,0,0,0,87.95,1.843L81.113-15.819,78.631-16.1v-1.465h8.831V-16.1l-2.157.2-.488.651L89.7-2.593l5.087-12.656-.326-.651-2.2-.2v-1.465h7.244V-16.1l-2.36.366L89.008,4.04A16.792,16.792,0,0,1,85.976,9.25,4.744,4.744,0,0,1,82.5,10.877a3.118,3.118,0,0,1-2.035-.631A2.026,2.026,0,0,1,79.689,8.6a3.115,3.115,0,0,1,1.058-2.2ZM99.507.541l2.157-.2.733-.651V-15.127h-2.6v-1.262l2.6-.651a22.584,22.584,0,0,1,.142-2.808,13.6,13.6,0,0,1,.509-2.279,9.74,9.74,0,0,1,2.869-4.5,6.562,6.562,0,0,1,4.375-1.648,3.241,3.241,0,0,1,2.035.57,1.9,1.9,0,0,1,.733,1.587,1.9,1.9,0,0,1-.407,1.262,3.969,3.969,0,0,1-1.343.936L108.176-26.2a4.529,4.529,0,0,0-1.811,2.259,11.354,11.354,0,0,0-.549,3.927v2.971h8.424l2.36-1.1h1.343V-.314l.651.651,1.913.2V2.006h-8.872V.541l2.2-.2.692-.651V-15.127h-8.75V-.314l.692.651,2.075.2V2.006H99.507Zm17.214-26.859a1.979,1.979,0,0,1,1.485.61,2.033,2.033,0,0,1,.59,1.465,2.046,2.046,0,0,1-.61,1.506,2,2,0,0,1-1.465.61,2.046,2.046,0,0,1-1.506-.61,2.046,2.046,0,0,1-.61-1.506,2.014,2.014,0,0,1,.59-1.485A2.065,2.065,0,0,1,116.722-26.319Zm5.7,26.859,2.2-.2.692-.651V-15.046h-2.889v-1.262l4.721-1.465h1.546v3.825q1.017-1.058,2.035-1.974t2.32-1.974a2.25,2.25,0,0,1,.509-.081h.468a6.2,6.2,0,0,1,1.2.1,7.011,7.011,0,0,1,1.282.427v3.5h-1.3a2.872,2.872,0,0,0-.936-.773,2.649,2.649,0,0,0-1.1-.2,3.6,3.6,0,0,0-2.035.692,14.577,14.577,0,0,0-2.442,2.279V-.314l.692.651,2.849.2V2.006h-9.808Zm15.79-4.314h1.953l.488,3.459a7.919,7.919,0,0,0,1.77.692,7.632,7.632,0,0,0,1.811.2,3.918,3.918,0,0,0,2.686-.9,2.992,2.992,0,0,0,1.017-2.36,2.97,2.97,0,0,0-1.18-2.442q-.244-.163-.468-.326a3.918,3.918,0,0,0-.549-.326q-.326-.163-.794-.387t-1.16-.549a27.9,27.9,0,0,1-2.6-1.343,7.054,7.054,0,0,1-1.607-1.262,3.682,3.682,0,0,1-.814-1.363,5.661,5.661,0,0,1-.224-1.689,4.9,4.9,0,0,1,1.892-4.11,8.5,8.5,0,0,1,5.311-1.465,13.293,13.293,0,0,1,2.482.2,14.769,14.769,0,0,1,2.279.651v4.6h-1.994l-.326-2.889a7.467,7.467,0,0,0-1.587-.61,6.569,6.569,0,0,0-1.506-.163,3.594,3.594,0,0,0-2.421.753,2.57,2.57,0,0,0-.875,2.055,2.868,2.868,0,0,0,.794,2.055,9.487,9.487,0,0,0,2.869,1.77q1.139.529,1.831.855t1.139.59q.448.265.753.488a5.517,5.517,0,0,1,.631.549,4.222,4.222,0,0,1,1.3,3.3A5.428,5.428,0,0,1,149.1.764a8.821,8.821,0,0,1-5.636,1.607,16.491,16.491,0,0,1-2.666-.2,16.768,16.768,0,0,1-2.584-.651Zm20.022,11.72a13.316,13.316,0,0,0,1.709-2.482,28.43,28.43,0,0,0,1.587-3.622l-6.837-17.662-2.482-.285v-1.465h8.831V-16.1l-2.157.2-.488.651,4.883,12.656,5.087-12.656-.326-.651-2.2-.2v-1.465h7.244V-16.1l-2.36.366L162.586,4.04a16.792,16.792,0,0,1-3.032,5.209,4.744,4.744,0,0,1-3.479,1.628,3.118,3.118,0,0,1-2.035-.631,2.026,2.026,0,0,1-.773-1.648,3.115,3.115,0,0,1,1.058-2.2ZM164.7-27.987h4.029l-5.942,7.732h-2.035ZM173.086.541l2.2-.2.692-.651V-15.046h-2.889v-1.262l4.721-1.465h1.546v2.238q1.343-.733,2.32-1.18t1.73-.733a7.184,7.184,0,0,1,1.384-.387,8.3,8.3,0,0,1,1.323-.1,4.863,4.863,0,0,1,3.927,1.607A6.814,6.814,0,0,1,191.4-11.79V-.314l.692.651,2.2.2V2.006h-8.912V.541l1.953-.2.692-.651V-11.1a4.551,4.551,0,0,0-.916-3.174,3.885,3.885,0,0,0-2.95-.977,8.542,8.542,0,0,0-2.157.265,15.856,15.856,0,0,0-2.645,1.038V-.314l.692.651,1.953.2V2.006h-8.912Z" transform="translate(-1.634 28.272)" fill="#fff"/>
  <path id="Path_2297" data-name="Path 2297" d="M5.985,7.947A13.316,13.316,0,0,0,7.694,5.465,28.427,28.427,0,0,0,9.281,1.843L2.444-15.819-.038-16.1v-1.465H8.793V-16.1l-2.157.2-.488.651L11.031-2.593l5.087-12.656-.326-.651-2.2-.2v-1.465h7.244V-16.1l-2.36.366L10.339,4.04A16.792,16.792,0,0,1,7.308,9.25a4.744,4.744,0,0,1-3.479,1.628,3.118,3.118,0,0,1-2.035-.631A2.026,2.026,0,0,1,1.02,8.6,3.115,3.115,0,0,1,2.078,6.4ZM20.839.541,23,.337l.733-.651V-15.127h-2.6v-1.262l2.6-.651a22.584,22.584,0,0,1,.142-2.808,13.6,13.6,0,0,1,.509-2.279,9.74,9.74,0,0,1,2.869-4.5,6.562,6.562,0,0,1,4.375-1.648,3.241,3.241,0,0,1,2.035.57,1.9,1.9,0,0,1,.733,1.587,1.9,1.9,0,0,1-.407,1.262,3.969,3.969,0,0,1-1.343.936L29.507-26.2A4.529,4.529,0,0,0,27.7-23.938a11.354,11.354,0,0,0-.549,3.927v2.971h8.424l2.36-1.1h1.343V-.314l.651.651,1.913.2V2.006H32.966V.541l2.2-.2.692-.651V-15.127h-8.75V-.314L27.8.337l2.075.2V2.006H20.839ZM38.053-26.319a1.979,1.979,0,0,1,1.485.61,2.033,2.033,0,0,1,.59,1.465,2.046,2.046,0,0,1-.61,1.506,2,2,0,0,1-1.465.61,2.046,2.046,0,0,1-1.506-.61,2.046,2.046,0,0,1-.61-1.506,2.014,2.014,0,0,1,.59-1.485A2.065,2.065,0,0,1,38.053-26.319ZM43.751.541l2.2-.2.692-.651V-15.046H43.751v-1.262l4.721-1.465h1.546v3.825q1.017-1.058,2.035-1.974t2.32-1.974a2.25,2.25,0,0,1,.509-.081h.468a6.194,6.194,0,0,1,1.2.1,7.01,7.01,0,0,1,1.282.427v3.5h-1.3a2.872,2.872,0,0,0-.936-.773,2.649,2.649,0,0,0-1.1-.2,3.6,3.6,0,0,0-2.035.692,14.577,14.577,0,0,0-2.442,2.279V-.314l.692.651,2.849.2V2.006H43.751Zm23.522,0,2.2-.2.692-.651V-15.046H67.273v-1.262l4.721-1.465H73.54v3.825q1.017-1.058,2.035-1.974t2.32-1.974a2.25,2.25,0,0,1,.509-.081h.468a6.194,6.194,0,0,1,1.2.1,7.01,7.01,0,0,1,1.282.427v3.5h-1.3a2.873,2.873,0,0,0-.936-.773,2.649,2.649,0,0,0-1.1-.2,3.6,3.6,0,0,0-2.035.692,14.577,14.577,0,0,0-2.442,2.279V-.314l.692.651,2.849.2V2.006H67.273ZM99.138-.07A16.473,16.473,0,0,1,95.312,1.8a12.273,12.273,0,0,1-3.744.57,9.489,9.489,0,0,1-3.724-.712A8.1,8.1,0,0,1,84.955-.375a9.5,9.5,0,0,1-1.872-3.154,11.749,11.749,0,0,1-.671-4.07A12.068,12.068,0,0,1,83.1-11.77a9.791,9.791,0,0,1,1.953-3.276,8.753,8.753,0,0,1,2.971-2.137,9.288,9.288,0,0,1,3.785-.753,6.984,6.984,0,0,1,5.372,2.1,8.175,8.175,0,0,1,1.953,5.8v.549q0,.346-.041.794H85.912q0,.692.02,1.221t.081,1a7.739,7.739,0,0,0,.163.875l.224.9a6.678,6.678,0,0,0,2.34,3.52A6.406,6.406,0,0,0,92.708.052,8.426,8.426,0,0,0,94.173-.07a9.186,9.186,0,0,0,1.445-.387,12.233,12.233,0,0,0,1.607-.712q.855-.448,1.913-1.139ZM95.516-10.407a15.023,15.023,0,0,0-.122-2.2,5.4,5.4,0,0,0-.448-1.465,3.8,3.8,0,0,0-3.581-2.075A4.578,4.578,0,0,0,87.8-14.639a7.461,7.461,0,0,0-1.689,4.232ZM101.376.541l2.2-.2.692-.651V-25.22h-3.134v-1.262l4.965-1.465h1.546V-8.372h.773l6.226-6.959-.285-.57-1.831-.163v-1.506h7.732v1.506l-2.6.326-5.575,5.9L119.241.256l2.6.2V2.006H115.5V.663L110-7.232h-2.36V-.314l.733.651,1.913.2V2.006h-8.912Zm22.057-4.314h1.953l.488,3.459a7.919,7.919,0,0,0,1.77.692,7.632,7.632,0,0,0,1.811.2,3.918,3.918,0,0,0,2.686-.9,2.992,2.992,0,0,0,1.017-2.36,2.97,2.97,0,0,0-1.18-2.442q-.244-.163-.468-.326a3.92,3.92,0,0,0-.549-.326q-.326-.163-.794-.387t-1.16-.549a27.9,27.9,0,0,1-2.6-1.343A7.054,7.054,0,0,1,124.8-9.308a3.682,3.682,0,0,1-.814-1.363,5.66,5.66,0,0,1-.224-1.689,4.9,4.9,0,0,1,1.892-4.11,8.5,8.5,0,0,1,5.311-1.465,13.293,13.293,0,0,1,2.482.2,14.77,14.77,0,0,1,2.279.651v4.6h-1.994l-.326-2.889a7.467,7.467,0,0,0-1.587-.61,6.569,6.569,0,0,0-1.506-.163,3.594,3.594,0,0,0-2.421.753,2.57,2.57,0,0,0-.875,2.055,2.868,2.868,0,0,0,.794,2.055,9.487,9.487,0,0,0,2.869,1.77q1.139.529,1.831.855t1.139.59q.448.265.753.488a5.516,5.516,0,0,1,.631.549,4.222,4.222,0,0,1,1.3,3.3,5.428,5.428,0,0,1-2.014,4.5,8.821,8.821,0,0,1-5.636,1.607,16.491,16.491,0,0,1-2.666-.2,16.768,16.768,0,0,1-2.584-.651ZM150.5,1.232a23.268,23.268,0,0,1-2.869.692,15.7,15.7,0,0,1-2.544.2,4.591,4.591,0,0,1-3.235-.9,4.441,4.441,0,0,1-.916-3.215V-15.127h-2.564v-1.262l2.686-1.18,1.75-3.785h1.506v4.314H150.5v1.913H144.31V-4.384a11.5,11.5,0,0,0,.163,2.137,3.383,3.383,0,0,0,.549,1.363,1.982,1.982,0,0,0,1.017.733,5.168,5.168,0,0,0,1.567.2q.692,0,1.4-.061A8.8,8.8,0,0,0,150.5-.273ZM166.449-.273q-1.1.733-1.994,1.241a12.618,12.618,0,0,1-1.689.814,9.1,9.1,0,0,1-1.526.448,7.871,7.871,0,0,1-1.506.142A4.925,4.925,0,0,1,155.786.764,6.813,6.813,0,0,1,154.4-3.814V-15.209h-2.889V-16.47l4.721-1.506h1.546v13.47a4.726,4.726,0,0,0,.936,3.235,3.874,3.874,0,0,0,3.011,1.038A9.276,9.276,0,0,0,163.946-.5a14.464,14.464,0,0,0,2.5-.916v-13.8h-2.889V-16.47l4.721-1.506h1.546V-.314l.733.651,1.913.2V2.006h-6.023ZM174.3.541l2.2-.2.692-.651V-15.046H174.3v-1.262l4.721-1.465h1.546v3.825q1.017-1.058,2.035-1.974t2.32-1.974a2.25,2.25,0,0,1,.509-.081h.468a6.2,6.2,0,0,1,1.2.1,7.01,7.01,0,0,1,1.282.427v3.5h-1.3a2.872,2.872,0,0,0-.936-.773,2.649,2.649,0,0,0-1.1-.2,3.6,3.6,0,0,0-2.035.692,14.577,14.577,0,0,0-2.442,2.279V-.314l.692.651,2.849.2V2.006H174.3Zm20.755-27.348a2.227,2.227,0,0,1,1.628.692,2.274,2.274,0,0,1,.692,1.669,2.241,2.241,0,0,1-.671,1.648,2.29,2.29,0,0,1-1.689.671,2.241,2.241,0,0,1-1.648-.671,2.241,2.241,0,0,1-.671-1.648,2.274,2.274,0,0,1,.692-1.669A2.274,2.274,0,0,1,195.058-26.807ZM190.174.541l2.2-.2.692-.651V-15.046h-2.889v-1.262l4.721-1.465h1.587V-.314l.692.651,2.2.2V2.006h-9.2Zm10.7,0,2.2-.2.692-.651V-15.046h-2.889v-1.262l4.721-1.465h1.546v2.238q1.343-.733,2.32-1.18t1.73-.733a7.184,7.184,0,0,1,1.384-.387,8.3,8.3,0,0,1,1.323-.1,4.863,4.863,0,0,1,3.927,1.607,6.814,6.814,0,0,1,1.363,4.538V-.314l.692.651,2.2.2V2.006h-8.912V.541l1.953-.2.692-.651V-11.1a4.551,4.551,0,0,0-.916-3.174,3.885,3.885,0,0,0-2.95-.977,8.542,8.542,0,0,0-2.157.265,15.856,15.856,0,0,0-2.645,1.038V-.314l.692.651,1.953.2V2.006h-8.912Zm22.586,0,2.2-.2.692-.651V-15.046h-2.889v-1.262l4.721-1.465h1.546v2.238q1.343-.733,2.32-1.18t1.73-.733a7.184,7.184,0,0,1,1.384-.387,8.3,8.3,0,0,1,1.323-.1,4.863,4.863,0,0,1,3.927,1.607,6.814,6.814,0,0,1,1.363,4.538V-.314l.692.651,2.2.2V2.006h-8.912V.541l1.953-.2.692-.651V-11.1a4.551,4.551,0,0,0-.916-3.174,3.885,3.885,0,0,0-2.95-.977,8.542,8.542,0,0,0-2.157.265,15.856,15.856,0,0,0-2.645,1.038V-.314l.692.651,1.953.2V2.006h-8.912Z" transform="translate(3.038 72.464)" fill="#fff"/>
</svg>
