<svg id="PwC_merki" xmlns="http://www.w3.org/2000/svg" xmlns:xlink="http://www.w3.org/1999/xlink" width="89.349" height="67.816" viewBox="0 0 89.349 67.816">
  <defs>
    <clipPath id="clip-path">
      <path id="Path_6" data-name="Path 6" d="M0-1151.946H89.349v-67.816H0Z" transform="translate(0 1219.762)" fill="none"/>
    </clipPath>
  </defs>
  <g id="Group_12" data-name="Group 12" clip-path="url(#clip-path)">
    <g id="Group_9" data-name="Group 9" transform="translate(49.95 42.946)">
      <path id="Path_3" data-name="Path 3" d="M-179.2-31.346c-2.876.464-4.346,2.589-4.346,6.327,0,3.761,1.958,6.276,4.961,6.276,1.4,0,2.666-.464,5.335-1.773v3.042a16.465,16.465,0,0,1-7.668,1.923,8.235,8.235,0,0,1-6.364-2.378,8.607,8.607,0,0,1-2.468-6.238c0-5.383,3.985-9.025,9.806-9.025,3.866,0,6.525,1.766,6.525,4.36a2.807,2.807,0,0,1-3.074,2.82,5.059,5.059,0,0,1-2.707-.822Z" transform="translate(189.749 33.191)" fill="#2b2e34"/>
    </g>
    <g id="Group_10" data-name="Group 10" transform="translate(21.137 42.946)">
      <path id="Path_4" data-name="Path 4" d="M-427.588-153.3c2.578-3.25,3.489-4.561,3.489-6.157a2.869,2.869,0,0,0-2.946-2.868,3.42,3.42,0,0,0-2.428,1v6.621l-4.224,5.629v-12.833h-4.016l-6.677,11.069v-11.069H-446.7l-6.061,1.478v1.549l3.306.336v13.575h4.273l6.4-10.524v10.524h4.679Z" transform="translate(452.76 162.328)" fill="#2b2e34"/>
    </g>
    <g id="Group_11" data-name="Group 11" transform="translate(0 42.988)">
      <path id="Path_5" data-name="Path 5" d="M-142.272-258.555c.455.022.654.022.942.022,3.442,0,5.287-2.146,5.287-6.26,0-3.482-1.51-5.334-4.3-5.334a16.743,16.743,0,0,0-1.933.176Zm0,7.418,2.771.616v1.572h-10.87v-1.572l2.477-.616v-18.99h-2.754v-1.629l6.65-2.02h1.725v2.268c3.114-1.853,4.184-2.181,5.782-2.181,3.689,0,6.412,3.4,6.412,8.114,0,5.447-3.634,9.111-9.359,9.111a26.529,26.529,0,0,1-2.836-.167Z" transform="translate(150.648 273.776)" fill="#2b2e34"/>
    </g>
  </g>
  <path id="Path_7" data-name="Path 7" d="M1050.8-837.309h4.222v-8.319H1050.8Zm0-8.319-28.278,8.319h0v0Z" transform="translate(-965.671 866.429)" fill="#fb6798"/>
  <path id="Path_8" data-name="Path 8" d="M1324.271-1161.309h-3.265v5.065h3.265Z" transform="translate(-1247.561 1164.559)" fill="#ffb17f"/>
  <path id="Path_9" data-name="Path 9" d="M1022.521-1216.512h16.6v-3.25h-16.6Z" transform="translate(-965.671 1219.762)" fill="#ff923d"/>
  <g id="Group_13" data-name="Group 13" transform="translate(56.85 3.25)">
    <path id="Path_10" data-name="Path 10" d="M-281.89,0h-16.6V5.066h16.6Z" transform="translate(298.485)" fill="#ff6f2a"/>
  </g>
  <path id="Path_11" data-name="Path 11" d="M1388.143-1070.2h-8.418v12.485h8.418Z" transform="translate(-1303.015 1078.515)" fill="#e12c17"/>
  <path id="Path_12" data-name="Path 12" d="M1388.143-845.627h-8.418v8.319h8.418Z" transform="translate(-1303.015 866.428)" fill="#ff5125"/>
  <path id="Path_13" data-name="Path 13" d="M1324.271-1070.2h-3.265v12.485h3.265Z" transform="translate(-1247.561 1078.515)" fill="#ff872c"/>
  <path id="Path_14" data-name="Path 14" d="M1324.271-845.627h-3.265v8.319h3.265Z" transform="translate(-1247.561 866.428)" fill="#fe451f"/>
  <g id="Group_14" data-name="Group 14" transform="translate(56.85 8.315)">
    <path id="Path_15" data-name="Path 15" d="M-281.89,0h-16.6V8.317h10.378v4.169h6.217Z" transform="translate(298.485)" fill="#ff5d1e"/>
  </g>
  <g id="Group_15" data-name="Group 15" transform="translate(56.85 20.801)">
    <path id="Path_16" data-name="Path 16" d="M-281.89,0h-6.217V8.319h-10.378v0h16.6Z" transform="translate(298.485)" fill="#fc3919"/>
  </g>
  <path id="Path_17" data-name="Path 17" d="M1032.9-920.616h-10.379v4.169H1032.9Z" transform="translate(-965.671 937.248)" fill="#ed4f1e"/>
  <path id="Path_18" data-name="Path 18" d="M1032.9-845.627h-10.379v8.319H1032.9Z" transform="translate(-965.671 866.428)" fill="#eb351a"/>
  <path id="Path_19" data-name="Path 19" d="M723.209-696H739.85v4.16H723.209Z" transform="translate(-683 725.119)" fill="#e12c17"/>
</svg>
